<svg xmlns="http://www.w3.org/2000/svg" width="77" height="77" viewBox="0 0 77 77">
  <defs>
    <style>
      .cls-1, .cls-2 {
        fill: #dfb960;
      }

      .cls-1 {
        opacity: 0.2;
      }
    </style>
  </defs>
  <g id="Group_124" data-name="Group 124" transform="translate(-50 -461)">
    <circle id="Ellipse_36" data-name="Ellipse 36" class="cls-1" cx="38.5" cy="38.5" r="38.5" transform="translate(50 461)"/>
    <g id="phone-call_1_" data-name="phone-call (1)" transform="translate(75.656 487)">
      <g id="Group_119" data-name="Group 119" transform="translate(0.344 0)">
        <path id="Path_427" data-name="Path 427" class="cls-2" d="M19.484,41.02a2.384,2.384,0,0,0-1.729-.793,2.465,2.465,0,0,0-1.75.788l-1.617,1.612c-.133-.072-.266-.138-.394-.2-.184-.092-.358-.179-.506-.271a17.571,17.571,0,0,1-4.21-3.837A10.366,10.366,0,0,1,7.9,36.134c.42-.384.808-.783,1.187-1.166.143-.143.286-.292.43-.435a2.347,2.347,0,0,0,0-3.54l-1.4-1.4c-.159-.159-.322-.322-.476-.486-.307-.317-.629-.645-.962-.952a2.422,2.422,0,0,0-1.714-.752,2.506,2.506,0,0,0-1.739.752l-.01.01L1.476,29.923A3.743,3.743,0,0,0,.366,32.3a8.968,8.968,0,0,0,.655,3.8,22.028,22.028,0,0,0,3.914,6.528A24.075,24.075,0,0,0,12.951,48.9a12.49,12.49,0,0,0,4.5,1.33c.107.005.22.01.322.01a3.855,3.855,0,0,0,2.952-1.269c.005-.01.015-.015.02-.026a11.631,11.631,0,0,1,.9-.926c.22-.21.445-.43.665-.66a2.552,2.552,0,0,0,.773-1.77,2.459,2.459,0,0,0-.788-1.755Zm1.832,5.387c-.005,0-.005.005,0,0-.2.215-.4.409-.624.624a13.453,13.453,0,0,0-.987,1.023,2.466,2.466,0,0,1-1.924.813c-.077,0-.159,0-.235-.005a11.1,11.1,0,0,1-3.99-1.2A22.725,22.725,0,0,1,6,41.751,20.77,20.77,0,0,1,2.32,35.617a7.3,7.3,0,0,1-.573-3.2A2.348,2.348,0,0,1,2.453,30.9L4.2,29.151a1.163,1.163,0,0,1,.778-.363,1.094,1.094,0,0,1,.747.358l.015.015c.312.292.609.593.921.916.159.164.322.327.486.5l1.4,1.4a.976.976,0,0,1,0,1.586c-.148.148-.292.3-.44.44-.43.44-.839.849-1.284,1.248-.01.01-.02.015-.026.026a1.043,1.043,0,0,0-.266,1.161l.015.046a11.213,11.213,0,0,0,1.652,2.7l.005.005a18.777,18.777,0,0,0,4.543,4.134,6.986,6.986,0,0,0,.629.343c.184.092.358.179.506.271.02.01.041.026.061.036a1.109,1.109,0,0,0,.506.128,1.094,1.094,0,0,0,.778-.353l1.75-1.75a1.157,1.157,0,0,1,.773-.384,1.042,1.042,0,0,1,.737.373l.01.01,2.819,2.819A1.012,1.012,0,0,1,21.315,46.407Z" transform="translate(-0.344 -26.004)"/>
        <path id="Path_428" data-name="Path 428" class="cls-2" d="M245.512,87.3a6.584,6.584,0,0,1,5.362,5.362.686.686,0,0,0,.68.573.913.913,0,0,0,.118-.01.691.691,0,0,0,.568-.8,7.961,7.961,0,0,0-6.487-6.487.694.694,0,0,0-.8.563A.683.683,0,0,0,245.512,87.3Z" transform="translate(-232.43 -81.529)"/>
        <path id="Path_429" data-name="Path 429" class="cls-2" d="M260.26,10.693A13.109,13.109,0,0,0,249.578.011a.69.69,0,1,0-.225,1.361,11.709,11.709,0,0,1,9.546,9.546.686.686,0,0,0,.68.573.914.914,0,0,0,.118-.01A.678.678,0,0,0,260.26,10.693Z" transform="translate(-236.066 0)"/>
      </g>
    </g>
  </g>
</svg>
