<svg xmlns="http://www.w3.org/2000/svg" width="77" height="77" viewBox="0 0 77 77">
  <defs>
    <style>
      .cls-1, .cls-2 {
        fill: #dfb960;
      }

      .cls-1 {
        opacity: 0.2;
      }
    </style>
  </defs>
  <g id="Group_125" data-name="Group 125" transform="translate(-50 -364)">
    <circle id="Ellipse_37" data-name="Ellipse 37" class="cls-1" cx="38.5" cy="38.5" r="38.5" transform="translate(50 364)"/>
    <g id="location" transform="translate(38.549 390)">
      <g id="Group_110" data-name="Group 110" transform="translate(39.451)">
        <g id="Group_109" data-name="Group 109" transform="translate(0)">
          <path id="Path_423" data-name="Path 423" class="cls-2" d="M57.607,3.115a10.635,10.635,0,0,0-18.156,7.52c0,5.747,5.434,10.527,8.353,13.095.406.357.756.665,1.035.926a1.832,1.832,0,0,0,2.495,0c.279-.261.629-.569,1.035-.926,2.919-2.568,8.353-7.348,8.353-13.095A10.566,10.566,0,0,0,57.607,3.115ZM51.4,22.624c-.415.365-.773.68-1.068.955a.355.355,0,0,1-.484,0c-.3-.276-.653-.591-1.068-.955-2.744-2.414-7.853-6.908-7.853-11.989a9.162,9.162,0,0,1,18.325,0C59.249,15.716,54.14,20.21,51.4,22.624Z" transform="translate(-39.451)"/>
        </g>
      </g>
      <g id="Group_112" data-name="Group 112" transform="translate(45.399 5.547)">
        <g id="Group_111" data-name="Group 111" transform="translate(0)">
          <path id="Path_424" data-name="Path 424" class="cls-2" d="M165.257,112.938a4.687,4.687,0,1,0,4.687,4.687A4.692,4.692,0,0,0,165.257,112.938Zm0,7.9a3.214,3.214,0,1,1,3.214-3.214A3.218,3.218,0,0,1,165.257,120.839Z" transform="translate(-160.57 -112.938)"/>
        </g>
      </g>
    </g>
  </g>
</svg>
